<?xml version="1.0" encoding="utf-8"?>
<!-- Svg Vector Icons : http://www.onlinewebfonts.com/icon -->
<!DOCTYPE svg PUBLIC "-//W3C//DTD SVG 1.1//EN" "http://www.w3.org/Graphics/SVG/1.1/DTD/svg11.dtd">
<svg version="1.1" xmlns="http://www.w3.org/2000/svg" xmlns:xlink="http://www.w3.org/1999/xlink" x="0px" y="0px" viewBox="0 0 1000 1000" enable-background="new 0 0 1000 1000" xml:space="preserve">
<metadata> Svg Vector Icons : http://www.onlinewebfonts.com/icon </metadata>
<g><g transform="translate(0.000000,512.000000) scale(0.100000,-0.100000)"><path d="M100,120v-4900h4900h4900v181.8v181.8H5172.3H444.5V301.8V5020H272.3H100V120z"/><path d="M2618.9,2217.8c-367.5-482.3-658.4-882.4-650.8-890c42.1-36.4,254.6-193.3,262.2-193.3c3.8,0,201,254.6,436.4,564.6c235.4,310.1,432.6,553.2,436.4,539.8c5.7-13.4,147.4-685.2,317.7-1496.8c170.4-809.6,317.7-1471.9,327.3-1470c9.6,1.9,468.9,206.7,1020.2,453.6c993.4,447.9,1003,451.7,1052.7,421.1c26.8-19.1,269.9-189.5,537.8-380.9s928.3-652.7,1464.3-1024c537.8-371.3,1010.6-700.5,1052.7-731.2l76.6-57.4l-526.4,11.5c-289,7.6-576.1,17.2-635.5,22.9l-111,11.5v-183.8v-183.7h134c145.5,0,1173.3-32.5,1489.1-45.9l195.2-9.6v957v955.1h-181.8h-181.8l-3.8-610.6l-5.7-610.6l-1052.7,731.2c-578,400-1322.6,922.6-1653.8,1158l-601,426.8l-356-158.9c-195.2-88.1-604.8-273.7-911.1-411.5c-304.3-137.8-557-248.8-560.8-246.9c-1.9,1.9-158.9,742.7-348.4,1648c-189.5,903.4-348.4,1651.8-350.3,1661.4C3286.9,3084.9,2984.5,2698.2,2618.9,2217.8z"/></g></g>
</svg>