<svg width="104" height="86" viewBox="0 0 104 86" fill="none" xmlns="http://www.w3.org/2000/svg">
<path d="M0 42.63V85.26H51.94H103.88V83.6783V82.0967H53.7664H3.6517V41.0483V0H1.82638H0V42.63Z" fill="black"/>
<path d="M95.5651 22.4933C95.7544 21.6868 95.254 20.8796 94.4474 20.6903L81.3044 17.6064C80.4979 17.4171 79.6907 17.9175 79.5014 18.7241C79.3122 19.5306 79.8126 20.3378 80.6191 20.5271L92.3018 23.2683L89.5605 34.951C89.3712 35.7576 89.8716 36.5648 90.6782 36.754C91.4847 36.9433 92.2919 36.4429 92.4812 35.6364L95.5651 22.4933ZM26.0498 66.1026L94.8951 23.4256L93.3145 20.8758L24.4692 63.5528L26.0498 66.1026Z" fill="black"/>
</svg>
