<svg width="104" height="86" viewBox="0 0 104 86" fill="none" xmlns="http://www.w3.org/2000/svg">
<path d="M0 42.63V85.26H51.94H103.88V83.6783V82.0967H53.7664H3.6517V41.0483V0H1.82638H0V42.63Z" fill="black"/>
<path d="M93.6574 67.4495C94.4699 67.2876 94.9972 66.4977 94.8353 65.6853L92.1971 52.4455C92.0353 51.6331 91.2454 51.1057 90.4329 51.2676C89.6205 51.4295 89.0931 52.2194 89.255 53.0318L91.6001 64.8004L79.8314 67.1455C79.019 67.3074 78.4916 68.0973 78.6535 68.9097C78.8154 69.7222 79.6052 70.2496 80.4177 70.0877L93.6574 67.4495ZM25.1671 22.2475L92.5313 67.2259L94.1972 64.7309L26.8329 19.7525L25.1671 22.2475Z" fill="black"/>
</svg>
