<svg width="104" height="86" viewBox="0 0 104 86" fill="none" xmlns="http://www.w3.org/2000/svg">
<path d="M0 42.63V85.26H51.94H103.88V83.6783V82.0967H53.7664H3.6517V41.0483V0H1.82638H0V42.63Z" fill="black"/>
<path d="M101.061 44.0607C101.646 43.4749 101.646 42.5251 101.061 41.9393L91.5147 32.3934C90.9289 31.8076 89.9792 31.8076 89.3934 32.3934C88.8076 32.9792 88.8076 33.9289 89.3934 34.5147L97.8787 43L89.3934 51.4853C88.8076 52.0711 88.8076 53.0208 89.3934 53.6066C89.9792 54.1924 90.9289 54.1924 91.5147 53.6066L101.061 44.0607ZM19 44.5H100V41.5H19V44.5Z" fill="black"/>
</svg>
