<?xml version="1.0" encoding="utf-8"?>
<!-- Svg Vector Icons : http://www.onlinewebfonts.com/icon -->
<!DOCTYPE svg PUBLIC "-//W3C//DTD SVG 1.1//EN" "http://www.w3.org/Graphics/SVG/1.1/DTD/svg11.dtd">
<svg version="1.1" xmlns="http://www.w3.org/2000/svg" xmlns:xlink="http://www.w3.org/1999/xlink" x="0px" y="0px" viewBox="0 0 1000 1000" enable-background="new 0 0 1000 1000" xml:space="preserve">
<metadata> Svg Vector Icons : http://www.onlinewebfonts.com/icon </metadata>
<g><g><path d="M988.7,11.5v-0.1l-0.1-1.4H607.2v88.9h231.1L672.1,265.1c-35.4-28.6-76-51.8-121.3-67.7c-212.9-74-444.9,38.1-518.3,250.7C-41.1,660.7,71.9,893,284.7,967.2c212.9,74.2,444.8-38,518.2-250.6c47.4-137.3,16.7-282.7-68-388.5L901.1,162v230.9H990V11.5H988.7z M682.2,674.6c-50.4,145.9-209.8,223-356,172.1c-146.1-50.9-223.7-210.6-173.2-356.6C203.6,344.1,362.9,267,509,318C655.1,369,732.7,528.6,682.2,674.6z"/></g><g></g><g></g><g></g><g></g><g></g><g></g><g></g><g></g><g></g><g></g><g></g><g></g><g></g><g></g><g></g></g>
</svg>