<?xml version="1.0" encoding="utf-8"?>
<!-- Svg Vector Icons : http://www.onlinewebfonts.com/icon -->
<!DOCTYPE svg PUBLIC "-//W3C//DTD SVG 1.1//EN" "http://www.w3.org/Graphics/SVG/1.1/DTD/svg11.dtd">
<svg version="1.1" xmlns="http://www.w3.org/2000/svg" xmlns:xlink="http://www.w3.org/1999/xlink" x="0px" y="0px" viewBox="0 0 1000 1000" enable-background="new 0 0 1000 1000" xml:space="preserve">
<metadata> Svg Vector Icons : http://www.onlinewebfonts.com/icon </metadata>
<g><path d="M892,990H108c-54.1,0-98-43.9-98-98V441.2h60.5c-0.4,170.3-1.7,392-1.7,392c0,54.1,63.5,98,117.6,98h627.2c54.1,0,117.6-43.9,117.6-98c0,0-1.3-226.7-1.7-392H990V892C990,946.1,946.1,990,892,990 M769.9,678.7c5.7,10.3,8.5,22.6,8.5,36.9c0,18-4.7,35.2-14.1,51.7c-9.4,16.5-22.9,29.2-40.6,38.1c-17.7,8.9-40.9,13.4-69.7,13.4c-28.1,0-50.2-3.3-66.4-9.9c-16.2-6.6-29.5-16.3-40-29c-10.4-12.7-18.5-28.7-24.1-47.9l85.7-11.4c3.4,17.3,8.6,29.3,15.7,35.9c7.1,6.7,16.1,10,27.1,10c11.5,0,21.1-4.2,28.7-12.6c7.6-8.4,11.5-19.6,11.5-33.7c0-14.3-3.7-25.4-11-33.3c-7.4-7.9-17.4-11.8-30-11.8c-6.7,0-16,1.7-27.8,5l4.4-61.2c4.8,0.7,8.5,1,11.1,1c11.2,0,20.6-3.6,28.1-10.7c7.5-7.2,11.3-15.7,11.3-25.5c0-9.4-2.8-16.9-8.4-22.5c-5.6-5.6-13.3-8.4-23.2-8.4c-10.1,0-18.3,3-24.6,9.1c-6.3,6.1-10.6,16.8-12.9,32.1l-81-14.5c6.7-25.8,19.7-45.6,38.8-59.4c19.2-13.8,46.3-20.6,81.4-20.6c40.3,0,69.4,7.5,87.4,22.6c18,15,27,33.9,27,56.6c0,13.3-3.7,25.4-10.9,36.2c-7.3,10.8-18.3,20.3-33.1,28.4c12,3,21.1,6.4,27.4,10.3C756.3,660.1,764.2,668.4,769.9,678.7 M478.6,813.6H221.3c3-25.4,11.9-49.3,26.9-71.7c15-22.4,43-48.8,84.1-79.3c25.1-18.6,41.2-32.8,48.2-42.5c7-9.7,10.5-18.9,10.5-27.6c0-9.4-3.5-17.4-10.4-24.1c-6.9-6.7-15.7-10-26.2-10c-10.9,0-19.9,3.4-26.8,10.3c-6.9,6.9-11.6,11.2-14,28.6l-85.9,0.9c3.4-24.1,9.5-43,18.5-56.5c9-13.5,21.7-23.9,38-31.2c16.3-7.2,39-10.8,67.9-10.8c30.2,0,53.6,3.5,70.4,10.3c16.8,6.8,29.9,17.4,39.6,31.7c9.7,14.2,14.4,30.2,14.4,47.9c0,18.8-5.5,36.8-16.5,53.9c-11,17.1-31.1,35.9-60.1,56.4c-17.3,11.9-28.8,20.2-34.6,25c-5.8,4.8-12.7,11-20.5,18.8h133.9L478.6,813.6L478.6,813.6z M10,186.4c0-54.1,43.9-98,98-98h39.2v196c0,43.3,35.1,78.4,78.4,78.4c43.3,0,78.4-35.1,78.4-78.4v-196h392v196c0,43.3,35.1,78.4,78.4,78.4c43.3,0,78.4-35.1,78.4-78.4v-196H892c54.1,0,98,43.9,98,98V402H10V186.4z M774.4,323.6c-32.5,0-58.8-26.3-58.8-58.8v-196c0-32.5,26.3-58.8,58.8-58.8c32.5,0,58.8,26.3,58.8,58.8v196C833.2,297.3,806.9,323.6,774.4,323.6 M225.6,323.6c-32.5,0-58.8-26.3-58.8-58.8v-196c0-32.5,26.3-58.8,58.8-58.8c32.5,0,58.8,26.3,58.8,58.8v196C284.4,297.3,258.1,323.6,225.6,323.6"/></g>
</svg>