<?xml version="1.0" encoding="utf-8"?>
<!-- Svg Vector Icons : http://www.onlinewebfonts.com/icon -->
<!DOCTYPE svg PUBLIC "-//W3C//DTD SVG 1.1//EN" "http://www.w3.org/Graphics/SVG/1.1/DTD/svg11.dtd">
<svg version="1.1" xmlns="http://www.w3.org/2000/svg" xmlns:xlink="http://www.w3.org/1999/xlink" x="0px" y="0px" viewBox="0 0 1000 1000" enable-background="new 0 0 1000 1000" xml:space="preserve">
<metadata> Svg Vector Icons : http://www.onlinewebfonts.com/icon </metadata>
<g><path d="M888,698.1"/><path d="M10,10.1h39v979.7H10V10.1L10,10.1z"/><path d="M10.3,950.8H990v39H10.3V950.8z"/><path d="M607.5,261.5c-25.4,0-44.5,8.5-63.5,25.4c-16.9,19.1-27.5,40.2-27.5,63.5l0,218.1c0,8.5,2.1,14.8,8.5,21.2c6.4,6.4,12.7,8.5,21.2,8.5s16.9-2.1,23.3-8.5c4.2-6.4,8.5-12.7,8.5-21.2V373.7h14.8v540.1c0,10.6,4.2,19.1,12.7,27.5c8.5,8.5,16.9,10.6,27.5,10.6c12.7,0,21.2-4.2,29.6-10.6c8.5-8.5,12.7-16.9,12.7-27.5V600.4h16.9v313.4c0,10.6,4.2,19.1,12.7,27.5c8.5,6.4,19.1,10.6,29.7,10.6c10.6,0,19.1-4.2,27.5-10.6c8.5-8.5,10.6-16.9,10.6-27.5V373.7h16.9v194.8c0,8.5,2.1,14.8,8.5,21.2c6.4,6.4,14.8,8.5,21.2,8.5c8.5,0,16.9-2.1,21.2-8.5c4.2-6.4,8.5-12.7,8.5-21.2V350.5c0-23.3-8.5-44.5-25.4-63.5c-16.9-16.9-38.1-25.4-63.5-25.4H607.5L607.5,261.5L607.5,261.5z"/><path d="M683.8,244.6c19.1,0,36-6.4,48.7-19.1c12.7-12.7,21.2-29.7,21.2-50.8c0-19.1-6.4-36-21.2-48.7c-12.7-14.8-29.6-21.2-48.7-21.2c-19.1,0-36,6.4-48.7,21.2c-12.7,12.7-19.1,29.6-19.1,48.7c0,19.1,6.4,36,19.1,50.8C647.8,238.2,664.7,244.6,683.8,244.6L683.8,244.6z"/><path d="M46.8,80.3h733v26.9h-733V80.3L46.8,80.3z"/><path d="M46.8,176.5h173.4v26.9H46.8V176.5L46.8,176.5z"/><path d="M46.8,261.6h173.4v26.9H46.8V261.6L46.8,261.6z"/><path d="M46.8,346.7h173.4v26.9H46.8V346.7L46.8,346.7z"/><path d="M46.8,431.8h246.1v26.9H46.8V431.8z"/><path d="M46.8,516.9h173.4v26.9H46.8V516.9L46.8,516.9z"/><path d="M46.8,602h173.4v26.9H46.8V602L46.8,602z"/><path d="M46.8,687.1h173.4v26.9H46.8V687.1L46.8,687.1z"/><path d="M46.8,772.2h173.4V799H46.8V772.2L46.8,772.2z"/><path d="M46.8,857.2h173.4v26.9H46.8V857.2L46.8,857.2z"/></g>
</svg>