<?xml version="1.0" encoding="utf-8"?>
<!-- Svg Vector Icons : http://www.onlinewebfonts.com/icon -->
<!DOCTYPE svg PUBLIC "-//W3C//DTD SVG 1.1//EN" "http://www.w3.org/Graphics/SVG/1.1/DTD/svg11.dtd">
<svg version="1.1" xmlns="http://www.w3.org/2000/svg" xmlns:xlink="http://www.w3.org/1999/xlink" x="0px" y="0px" viewBox="0 0 1000 1000" enable-background="new 0 0 1000 1000" xml:space="preserve">
<metadata> Svg Vector Icons : http://www.onlinewebfonts.com/icon </metadata>
<g><g><path d="M641.3,623.3c161-77.8,228.1-270.9,150.1-431.3C713.4,31.6,519.8-35.4,358.8,42.4c-161,77.8-228.2,270.8-150.2,431.2C260.8,581,364.9,646.3,476.2,654.6V807h-116v70.6h116V990h70.6V877.6h116V807h-116V652.3C578.8,647.6,610.7,638.1,641.3,623.3z M298.1,430.4c-54.1-111.2-7.5-245,104.1-298.8c111.5-53.9,245.7-7.5,299.7,103.6c54.1,111.2,7.5,245.1-104,298.9C486.4,588.1,352.2,541.6,298.1,430.4z"/></g><g></g><g></g><g></g><g></g><g></g><g></g><g></g><g></g><g></g><g></g><g></g><g></g><g></g><g></g><g></g></g>
</svg>