<?xml version="1.0" encoding="utf-8"?>
<!-- Svg Vector Icons : http://www.onlinewebfonts.com/icon -->
<!DOCTYPE svg PUBLIC "-//W3C//DTD SVG 1.1//EN" "http://www.w3.org/Graphics/SVG/1.1/DTD/svg11.dtd">
<svg version="1.1" xmlns="http://www.w3.org/2000/svg" xmlns:xlink="http://www.w3.org/1999/xlink" x="0px" y="0px" viewBox="0 0 1000 1000" enable-background="new 0 0 1000 1000" xml:space="preserve">
<metadata> Svg Vector Icons : http://www.onlinewebfonts.com/icon </metadata>
<g><g transform="translate(0.000000,511.000000) scale(0.100000,-0.100000)"><path d="M4681.8,5002.2c-657.7-94.3-1072.6-242.8-1532.2-546.9c-754.3-499.8-1258.8-1244.6-1452.1-2149.8c-75.4-351.2-75.4-966.5-2.4-1310.6c101.4-466.7,278.2-888.7,528-1254.1c162.6-238.1,523.3-608.2,770.8-794.4c363-273.4,931.1-528,1353.1-603.5l157.9-28.3v-657.7v-655.3h-506.8h-506.8v-483.2v-483.2h506.8H4505l4.7-407.8l7.1-405.4l476.2-7.1l478.5-4.7l4.7,405.5l7.1,407.8l513.9,7.1l511.5,4.7v483.2v483.2h-518.6h-518.6l4.7,650.6l7.1,653l235.7,54.2c462,103.7,926.4,315.9,1287.1,587c245.2,181.5,603.5,554,766.1,789.7c245.2,358.3,433.8,803.8,532.8,1256.4c73.1,346.5,73.1,961.8-2.4,1310.7c-289.9,1355.4-1313,2378.5-2640.1,2644.9C5445.5,4992.7,4839.7,5025.7,4681.8,5002.2z M5591.7,3972c855.7-221.6,1506.3-869.8,1737.3-1735c82.5-315.9,87.2-829.8,9.4-1140.9C7265.4,803.8,7159.3,561,6999,323c-332.4-497.4-827.4-851-1409.7-1006.6c-311.2-82.5-829.8-87.2-1138.6-9.4c-893.4,223.9-1565.2,893.4-1789.2,1789.2c-42.4,169.7-51.9,271.1-51.9,561c2.4,306.4,9.4,386.6,63.6,589.3c245.2,914.6,975.9,1588.8,1918.8,1768C4863.3,4064,5301.7,4047.5,5591.7,3972z"/></g></g>
</svg>